<svg xmlns="http://www.w3.org/2000/svg" viewBox="0 0 1024 1024">
	<rect width="1024" height="1024" fill="#000"/>
	<path fill="#fff" d="m 461,819.09631 c -28.33793,-6.21025 -48.4177,-23.192 -54.51469,-46.10387 -5.12491,-19.25889 4.20229,-40.79437 21.31408,-49.21187 6.31359,-3.10573 7.25613,-3.28049 17.68482,-3.27907 9.65315,0.001 11.57243,0.29454 15.51579,2.37058 14.68966,7.73356 22.97806,22.38063 21.67508,38.30371 -1.32007,16.13204 -13.58107,29.89199 -30.56202,34.29833 l -4.61306,1.19703 6.24998,3.17881 c 16.63312,8.45979 37.02899,7.91694 53.9103,-1.43486 11.63947,-6.44796 22.91142,-21.94777 26.48222,-36.4151 2.58045,-10.45485 1.61482,-36.95844 -2.47359,-67.89237 -1.99118,-15.06581 -3.74376,-27.50143 -3.89462,-27.63471 -0.15086,-0.13328 -4.09929,0.4095 -8.77429,1.20618 -11.56242,1.97039 -35.02435,1.1978 -48.68841,-1.60328 -32.01123,-6.56218 -62.92701,-24.84167 -81.86197,-48.40229 -19.91074,-24.77478 -28.82959,-49.11748 -30.10731,-82.17353 -0.48612,-12.57658 -0.2376,-16.99872 1.53827,-27.37131 4.92197,-28.74863 17.23681,-54.70129 37.31021,-78.62869 9.78498,-11.66365 37.41728,-38.73355 60.78254,-59.54544 10.16033,-9.05001 20.43481,-18.26553 22.83216,-20.47893 l 4.35883,-4.02436 -2.03532,-13.47564 c -5.24293,-34.7128 -7.1149,-65.51894 -5.2279,-86.033 3.65511,-39.73564 16.77788,-72.05711 38.42925,-94.65146 12.38777,-12.92729 22.59581,-18.22125 29.56704,-15.33367 5.51011,2.28236 16.10469,14.75497 21.768,25.62666 17.68496,33.94933 22.06101,77.45959 11.77294,117.05623 -6.57615,25.31021 -19.36799,50.13449 -37.1748,72.14268 -4.131,5.10569 -14.01845,15.52171 -21.9721,23.14672 l -14.46118,13.86365 1.73795,13.15153 c 1.31163,9.92538 2.05898,13.02834 3.04663,12.64934 2.68816,-1.03155 67.41552,-44.73847 80.82785,-54.57874 C 654.28372,312.91082 699.76646,263.00783 728.60172,208.5267 731.57077,202.91699 734,197.89983 734,197.37744 c 0,-0.52238 -8.34091,-2.02009 -18.53537,-3.32825 -10.19445,-1.30815 -18.18195,-2.69386 -17.75,-3.07934 1.00235,-0.89453 88.13896,-46.60669 90.69941,-47.58122 1.23767,-0.47107 1.68407,-0.35639 1.26325,0.32451 -0.60951,0.9862 -9.76566,52.24296 -15.32438,85.78686 -1.36715,8.25 -2.69271,15.63025 -2.9457,16.40055 -0.25299,0.77031 -4.10708,-5.75469 -8.56464,-14.5 -4.45755,-8.7453 -8.47616,-16.30853 -8.93023,-16.80717 -0.46699,-0.51283 -1.60455,0.50232 -2.61896,2.33714 C 724.41497,265.54665 676.67449,317.7656 620.5,359.99341 c -17.6567,13.273 -48.87159,34.13797 -81.03228,54.16441 C 526.79997,422.04602 515.26193,429.4 513.82764,430.5 l -2.60779,2 2.41751,16.9441 c 1.32963,9.31926 2.5645,17.09109 2.74415,17.27074 0.17965,0.17965 2.72852,-0.18847 5.66415,-0.81805 3.23309,-0.69338 10.48606,-0.95832 18.39593,-0.67198 11.31189,0.40949 14.32622,0.9019 22.53754,3.68165 31.44276,10.64423 53.13309,35.59973 60.05338,69.09354 2.77823,13.44647 2.33747,32.79851 -1.0477,46 -8.81448,34.37477 -35.89116,63.07058 -71.2821,75.54465 -7.37837,2.60061 -7.76908,2.88814 -7.27223,5.35181 1.03999,5.1569 6.51129,45.85139 7.66112,56.98199 1.43466,13.88768 0.64274,37.16923 -1.56882,46.12155 -5.77459,23.37544 -22.39663,40.56344 -47.52278,49.14086 -8.17168,2.78961 -11.10796,3.28327 -21,3.53064 -8.40266,0.21013 -13.78934,-0.21412 -20,-1.57519 z m 57.45915,-166.21787 c 4.14747,-0.61686 7.54004,-1.40436 7.53905,-1.75 C 525.99721,650.7828 524.21758,636.55 522.04346,619.5 510.69796,530.5259 508,509.02463 508,507.5815 c 0,-2.47289 -2.75738,-1.8886 -9.9039,2.09865 C 479.40582,520.108 469,537.50372 469,558.32098 c 0,16.5096 6.72964,31.32269 17.5,38.52052 5.08073,3.39545 6.4454,6.35275 3.21831,6.97423 -2.61983,0.50454 -13.44107,-4.91511 -19.4253,-9.72885 -11.01869,-8.86348 -18.93464,-25.55074 -20.01248,-42.18742 -1.52412,-23.52501 7.69188,-46.33724 25.40159,-62.87615 7.31226,-6.82884 20.21257,-15.41259 25.02343,-16.65036 1.73559,-0.44654 2.11387,-1.1327 1.77531,-3.2202 -0.23663,-1.45901 -1.15394,-8.27756 -2.03846,-15.15233 -0.88453,-6.87477 -1.77001,-12.66136 -1.96774,-12.85909 -0.44215,-0.44215 -4.43195,2.35505 -15.45447,10.83495 -30.40047,23.38782 -49.90868,49.28189 -56.36229,74.81207 -1.28145,5.06934 -2.66676,9.55329 -3.07847,9.96432 -0.90349,0.90201 0.14853,-12.08886 1.5996,-19.75267 3.34218,-17.65161 13.81142,-36.43315 32.05173,-57.5 7.96625,-9.2007 18.7326,-19.24474 36.18371,-33.75618 l 2.91448,-2.42352 -1.2912,-10.91015 c -0.71015,-6.00058 -1.57167,-11.64664 -1.91447,-12.5468 -0.49091,-1.28907 -3.8089,1.01208 -15.62328,10.83537 -44.02104,36.60212 -62.44075,56.5901 -74.46152,80.80128 -10.13966,20.42238 -13.57638,35.24383 -13.44873,58 0.0784,13.97572 0.42643,17.26517 2.75093,26 10.63695,39.97067 43.03548,69.41085 84.65932,76.92897 9.37715,1.6937 31.48223,1.93335 41.45915,0.44947 z m 27.6417,-7.92989 c 14.23015,-7.25968 28.7379,-20.62525 35.23492,-32.46091 8.5881,-15.64499 12.47064,-33.54146 10.68887,-49.27011 -2.77171,-24.46751 -16.50965,-45.44299 -36.08271,-55.09216 -12.31431,-6.07074 -33.10355,-9.47374 -34.56763,-5.65839 -0.30961,0.80683 0.37737,8.34433 1.52664,16.75 C 535.26087,609.6168 540,644.68414 540,645.7419 c 0,1.76422 1.45967,1.5744 6.10085,-0.79335 z m -33.11594,-325.5957 c 30.63719,-31.69543 44.4995,-55.98179 49.57576,-86.85526 2.86403,-17.41886 0.49037,-36.99969 -5.5061,-45.42095 -3.30198,-4.6372 -7.46354,-6.42522 -13.33578,-5.72974 -13.59767,1.61044 -28.2823,18.74805 -37.01054,43.19292 -3.38524,9.48092 -7.33094,27.64627 -8.78836,40.46018 -1.71688,15.09508 -0.0923,67 2.09703,67 0.4087,0 6.2443,-5.69122 12.96799,-12.64715 z"/>
</svg>